<?xml version="1.0" encoding="UTF-8"?>
<svg xmlns="http://www.w3.org/2000/svg" xmlns:xlink="http://www.w3.org/1999/xlink" viewBox="0 0 1929 4320">
  <defs>
    <style>
      .cls-1 {
        fill: #f268f9;
      }

      .cls-1, .cls-2, .cls-3, .cls-4, .cls-5, .cls-6, .cls-7, .cls-8, .cls-9, .cls-10, .cls-11, .cls-12, .cls-13, .cls-14, .cls-15, .cls-16, .cls-17, .cls-18, .cls-19, .cls-20, .cls-21, .cls-22, .cls-23, .cls-24, .cls-25, .cls-26, .cls-27, .cls-28, .cls-29, .cls-30, .cls-31, .cls-32, .cls-33, .cls-34, .cls-35, .cls-36, .cls-37, .cls-38, .cls-39, .cls-40, .cls-41, .cls-42, .cls-43 {
        stroke-width: 0px;
      }

      .cls-2 {
        fill: url(#linear-gradient);
      }

      .cls-3 {
        fill: #be61fe;
      }

      .cls-4 {
        fill: #7ea5ff;
      }

      .cls-5 {
        fill: #c662fe;
      }

      .cls-6 {
        fill: #82a0ff;
      }

      .cls-7 {
        fill: #da65fc;
      }

      .cls-8 {
        fill: #b662ff;
      }

      .cls-9 {
        fill: #8e92ff;
      }

      .cls-10 {
        fill: #d664fc;
      }

      .cls-11 {
        fill: #b464ff;
      }

      .cls-12 {
        fill: #6fb8ff;
      }

      .cls-13 {
        fill: #ce63fd;
      }

      .cls-14 {
        fill: #a675ff;
      }

      .cls-15 {
        fill: #8a97ff;
      }

      .cls-16 {
        fill: #de65fb;
      }

      .cls-17 {
        fill: #ae6cff;
      }

      .cls-18 {
        fill: #9a83ff;
      }

      .cls-19 {
        fill: #73b3ff;
      }

      .cls-20 {
        fill: #9e7fff;
      }

      .cls-21 {
        fill: #8e91ff;
      }

      .cls-22 {
        fill: #8d94ff;
      }

      .cls-23 {
        fill: #908fff;
      }

      .cls-24 {
        fill: #928dff;
      }

      .cls-25 {
        fill: #b861fe;
      }

      .cls-26 {
        fill: #869bff;
      }

      .cls-27 {
        fill: #e266fb;
      }

      .cls-28 {
        fill: #c261fe;
      }

      .cls-29 {
        fill: #f869f8;
      }

      .cls-30 {
        fill: #fc6af8;
      }

      .cls-31 {
        fill: #b267ff;
      }

      .cls-32 {
        fill: #f669f9;
      }

      .cls-33 {
        fill: #ea67fa;
      }

      .cls-34 {
        fill: #7baaff;
      }

      .cls-35 {
        fill: #6bbdff;
      }

      .cls-36 {
        fill: #d264fc;
      }

      .cls-37 {
        fill: #e667fa;
      }

      .cls-38 {
        fill: #ee68fa;
      }

      .cls-39 {
        fill: #aa70ff;
      }

      .cls-40 {
        fill: #ffabf8;
      }

      .cls-41 {
        fill: #ba60ff;
      }

      .cls-42 {
        fill: #ca63fd;
      }

      .cls-43 {
        fill: #9688ff;
      }
    </style>
    <linearGradient id="linear-gradient" x1="964.5" y1="0" x2="964.5" y2="4320" gradientUnits="userSpaceOnUse">
      <stop offset="0" stop-color="#ff6af8"/>
      <stop offset=".47" stop-color="#b860ff"/>
      <stop offset="1" stop-color="#6abeff"/>
    </linearGradient>
  </defs>
  <g id="Layer_1" data-name="Layer 1">
    <rect class="cls-2" width="1929" height="4320"/>
  </g>
  <g id="Layer_1_copy" data-name="Layer 1 copy">
    <g>
      <rect class="cls-35" x="1797.01" y="4196.58" width="127.99" height="123.42"/>
      <rect class="cls-35" x="1669.02" y="4196.58" width="127.99" height="123.42"/>
      <rect class="cls-35" x="1541.04" y="4196.58" width="127.99" height="123.42"/>
      <rect class="cls-35" x="1413.05" y="4196.58" width="127.99" height="123.42"/>
      <rect class="cls-35" x="1285.06" y="4196.58" width="127.99" height="123.42"/>
      <rect class="cls-35" x="1157.07" y="4196.58" width="127.99" height="123.42"/>
      <rect class="cls-35" x="1029.08" y="4196.58" width="127.99" height="123.42"/>
      <rect class="cls-35" x="901.1" y="4196.58" width="127.99" height="123.42"/>
      <rect class="cls-12" x="773.11" y="4196.58" width="127.99" height="123.42"/>
      <rect class="cls-12" x="645.12" y="4196.58" width="127.99" height="123.42"/>
      <rect class="cls-12" x="517.13" y="4196.58" width="127.99" height="123.42"/>
      <rect class="cls-12" x="389.14" y="4196.58" width="127.99" height="123.42"/>
      <rect class="cls-12" x="261.16" y="4196.58" width="127.99" height="123.42"/>
      <rect class="cls-12" x="133.17" y="4196.58" width="127.99" height="123.42"/>
      <rect class="cls-12" x="5.18" y="4196.58" width="127.99" height="123.42"/>
      <rect class="cls-35" x="1797.01" y="4073.17" width="127.99" height="123.42"/>
      <rect class="cls-35" x="1669.02" y="4073.17" width="127.99" height="123.42"/>
      <rect class="cls-35" x="1541.04" y="4073.17" width="127.99" height="123.42"/>
      <rect class="cls-35" x="1413.05" y="4073.17" width="127.99" height="123.42"/>
      <rect class="cls-35" x="1285.06" y="4073.17" width="127.99" height="123.42"/>
      <rect class="cls-35" x="1157.07" y="4073.17" width="127.99" height="123.42"/>
      <rect class="cls-35" x="1029.08" y="4073.17" width="127.99" height="123.42"/>
      <rect class="cls-35" x="901.1" y="4073.17" width="127.99" height="123.42"/>
      <rect class="cls-19" x="773.11" y="4073.17" width="127.99" height="123.42"/>
      <rect class="cls-19" x="645.12" y="4073.17" width="127.99" height="123.42"/>
      <rect class="cls-19" x="517.13" y="4073.17" width="127.99" height="123.42"/>
      <rect class="cls-19" x="389.14" y="4073.17" width="127.99" height="123.42"/>
      <rect class="cls-19" x="261.16" y="4073.17" width="127.99" height="123.42"/>
      <rect class="cls-19" x="133.17" y="4073.17" width="127.99" height="123.42"/>
      <rect class="cls-19" x="5.18" y="4073.17" width="127.99" height="123.42"/>
      <rect class="cls-35" x="1797.01" y="3949.75" width="127.99" height="123.42"/>
      <rect class="cls-35" x="1669.02" y="3949.75" width="127.99" height="123.42"/>
      <rect class="cls-35" x="1541.04" y="3949.75" width="127.99" height="123.42"/>
      <rect class="cls-35" x="1413.05" y="3949.75" width="127.99" height="123.42"/>
      <rect class="cls-35" x="1285.06" y="3949.75" width="127.99" height="123.42"/>
      <rect class="cls-35" x="1157.07" y="3949.75" width="127.99" height="123.42"/>
      <rect class="cls-35" x="1029.08" y="3949.75" width="127.99" height="123.42"/>
      <rect class="cls-35" x="901.1" y="3949.75" width="127.99" height="123.42"/>
      <rect class="cls-35" x="773.11" y="3949.75" width="127.99" height="123.42"/>
      <rect class="cls-35" x="645.12" y="3949.75" width="127.99" height="123.42"/>
      <rect class="cls-35" x="517.13" y="3949.75" width="127.99" height="123.42"/>
      <rect class="cls-35" x="389.14" y="3949.75" width="127.99" height="123.42"/>
      <rect class="cls-35" x="261.16" y="3949.75" width="127.99" height="123.42"/>
      <rect class="cls-35" x="133.17" y="3949.75" width="127.99" height="123.42"/>
      <rect class="cls-35" x="5.18" y="3949.75" width="127.99" height="123.42"/>
      <rect class="cls-34" x="1797.01" y="3826.34" width="127.99" height="123.42"/>
      <rect class="cls-34" x="1669.02" y="3826.34" width="127.99" height="123.42"/>
      <rect class="cls-34" x="1541.04" y="3826.34" width="127.99" height="123.42"/>
      <rect class="cls-34" x="1413.05" y="3826.34" width="127.99" height="123.42"/>
      <rect class="cls-35" x="1285.06" y="3826.34" width="127.99" height="123.42"/>
      <rect class="cls-35" x="1157.07" y="3826.34" width="127.99" height="123.42"/>
      <rect class="cls-35" x="1029.08" y="3826.34" width="127.99" height="123.42"/>
      <rect class="cls-35" x="901.1" y="3826.34" width="127.99" height="123.42"/>
      <rect class="cls-35" x="773.11" y="3826.34" width="127.99" height="123.42"/>
      <rect class="cls-35" x="645.12" y="3826.34" width="127.99" height="123.42"/>
      <rect class="cls-35" x="517.13" y="3826.34" width="127.99" height="123.42"/>
      <rect class="cls-35" x="389.14" y="3826.34" width="127.99" height="123.42"/>
      <rect class="cls-35" x="261.16" y="3826.34" width="127.99" height="123.42"/>
      <rect class="cls-35" x="133.17" y="3826.34" width="127.99" height="123.42"/>
      <rect class="cls-35" x="5.18" y="3826.34" width="127.99" height="123.42"/>
      <rect class="cls-4" x="1797.01" y="3702.92" width="127.99" height="123.42"/>
      <rect class="cls-4" x="1669.02" y="3702.92" width="127.99" height="123.42"/>
      <rect class="cls-4" x="1541.04" y="3702.92" width="127.99" height="123.42"/>
      <rect class="cls-4" x="1413.05" y="3702.92" width="127.99" height="123.42"/>
      <rect class="cls-35" x="1285.06" y="3702.92" width="127.99" height="123.42"/>
      <rect class="cls-35" x="1157.07" y="3702.92" width="127.99" height="123.42"/>
      <rect class="cls-35" x="1029.08" y="3702.92" width="127.99" height="123.42"/>
      <rect class="cls-35" x="901.1" y="3702.92" width="127.99" height="123.42"/>
      <rect class="cls-35" x="773.11" y="3702.92" width="127.99" height="123.42"/>
      <rect class="cls-35" x="645.12" y="3702.92" width="127.99" height="123.42"/>
      <rect class="cls-35" x="517.13" y="3702.92" width="127.99" height="123.42"/>
      <rect class="cls-35" x="389.14" y="3702.92" width="127.99" height="123.42"/>
      <rect class="cls-35" x="261.16" y="3702.92" width="127.99" height="123.42"/>
      <rect class="cls-35" x="133.17" y="3702.92" width="127.99" height="123.42"/>
      <rect class="cls-35" x="5.18" y="3702.92" width="127.99" height="123.42"/>
      <rect class="cls-6" x="1797.01" y="3579.51" width="127.99" height="123.42"/>
      <rect class="cls-6" x="1669.02" y="3579.51" width="127.99" height="123.42"/>
      <rect class="cls-6" x="1541.04" y="3579.51" width="127.99" height="123.42"/>
      <rect class="cls-6" x="1413.05" y="3579.51" width="127.99" height="123.42"/>
      <rect class="cls-6" x="1285.06" y="3579.51" width="127.99" height="123.42"/>
      <rect class="cls-6" x="1157.07" y="3579.51" width="127.99" height="123.42"/>
      <rect class="cls-6" x="1029.08" y="3579.51" width="127.99" height="123.42"/>
      <rect class="cls-6" x="901.1" y="3579.51" width="127.99" height="123.42"/>
      <rect class="cls-6" x="773.11" y="3579.51" width="127.99" height="123.42"/>
      <rect class="cls-35" x="645.12" y="3579.51" width="127.99" height="123.42"/>
      <rect class="cls-35" x="517.13" y="3579.51" width="127.99" height="123.42"/>
      <rect class="cls-35" x="389.14" y="3579.51" width="127.99" height="123.42"/>
      <rect class="cls-35" x="261.16" y="3579.51" width="127.99" height="123.42"/>
      <rect class="cls-35" x="133.17" y="3579.51" width="127.99" height="123.42"/>
      <rect class="cls-35" x="5.18" y="3579.51" width="127.99" height="123.42"/>
      <rect class="cls-26" x="1797.01" y="3456.09" width="127.99" height="123.42"/>
      <rect class="cls-26" x="1669.02" y="3456.09" width="127.99" height="123.42"/>
      <rect class="cls-26" x="1541.04" y="3456.09" width="127.99" height="123.42"/>
      <rect class="cls-26" x="1413.05" y="3456.09" width="127.99" height="123.42"/>
      <rect class="cls-26" x="1285.06" y="3456.09" width="127.99" height="123.42"/>
      <rect class="cls-26" x="1157.07" y="3456.09" width="127.99" height="123.42"/>
      <rect class="cls-26" x="1029.08" y="3456.09" width="127.99" height="123.42"/>
      <rect class="cls-26" x="901.1" y="3456.09" width="127.99" height="123.42"/>
      <rect class="cls-26" x="773.11" y="3456.09" width="127.99" height="123.42"/>
      <rect class="cls-35" x="645.12" y="3456.09" width="127.99" height="123.42"/>
      <rect class="cls-35" x="517.13" y="3456.09" width="127.99" height="123.42"/>
      <rect class="cls-35" x="389.14" y="3456.09" width="127.99" height="123.42"/>
      <rect class="cls-35" x="261.16" y="3456.09" width="127.99" height="123.42"/>
      <rect class="cls-35" x="133.17" y="3456.09" width="127.99" height="123.42"/>
      <rect class="cls-35" x="5.18" y="3456.09" width="127.99" height="123.42"/>
      <rect class="cls-15" x="1797.01" y="3332.67" width="127.99" height="123.42"/>
      <rect class="cls-15" x="1669.02" y="3332.67" width="127.99" height="123.42"/>
      <rect class="cls-15" x="1541.04" y="3332.67" width="127.99" height="123.42"/>
      <rect class="cls-15" x="1413.05" y="3332.67" width="127.99" height="123.42"/>
      <rect class="cls-15" x="1285.06" y="3332.67" width="127.99" height="123.42"/>
      <rect class="cls-15" x="1157.07" y="3332.67" width="127.99" height="123.42"/>
      <rect class="cls-15" x="1029.08" y="3332.67" width="127.99" height="123.42"/>
      <rect class="cls-15" x="901.1" y="3332.67" width="127.99" height="123.42"/>
      <rect class="cls-15" x="773.11" y="3332.67" width="127.99" height="123.42"/>
      <rect class="cls-15" x="645.12" y="3332.67" width="127.99" height="123.42"/>
      <rect class="cls-35" x="517.13" y="3332.67" width="127.99" height="123.42"/>
      <rect class="cls-35" x="389.14" y="3332.67" width="127.99" height="123.42"/>
      <rect class="cls-35" x="261.16" y="3332.67" width="127.99" height="123.42"/>
      <rect class="cls-35" x="133.17" y="3332.67" width="127.99" height="123.42"/>
      <rect class="cls-35" x="5.18" y="3332.67" width="127.99" height="123.42"/>
      <rect class="cls-9" x="1797.01" y="3209.26" width="127.99" height="123.42"/>
      <rect class="cls-9" x="1669.02" y="3209.26" width="127.99" height="123.42"/>
      <rect class="cls-9" x="1541.04" y="3209.26" width="127.99" height="123.42"/>
      <rect class="cls-9" x="1413.05" y="3209.26" width="127.99" height="123.42"/>
      <rect class="cls-9" x="1285.06" y="3209.26" width="127.99" height="123.42"/>
      <rect class="cls-9" x="1157.07" y="3209.26" width="127.99" height="123.42"/>
      <rect class="cls-9" x="1029.08" y="3209.26" width="127.99" height="123.42"/>
      <rect class="cls-9" x="901.1" y="3209.26" width="127.99" height="123.42"/>
      <rect class="cls-9" x="773.11" y="3209.26" width="127.99" height="123.42"/>
      <rect class="cls-9" x="645.12" y="3209.26" width="127.99" height="123.42"/>
      <rect class="cls-9" x="517.13" y="3209.26" width="127.99" height="123.42"/>
      <rect class="cls-9" x="389.14" y="3209.26" width="127.99" height="123.42"/>
      <rect class="cls-9" x="261.16" y="3209.26" width="127.99" height="123.42"/>
      <rect class="cls-9" x="133.17" y="3209.26" width="127.99" height="123.42"/>
      <rect class="cls-9" x="5.18" y="3209.26" width="127.99" height="123.42"/>
      <rect class="cls-24" x="1797.01" y="3085.84" width="127.99" height="123.42"/>
      <rect class="cls-24" x="1669.02" y="3085.84" width="127.99" height="123.42"/>
      <rect class="cls-24" x="1541.04" y="3085.84" width="127.99" height="123.42"/>
      <rect class="cls-24" x="1413.05" y="3085.84" width="127.99" height="123.42"/>
      <rect class="cls-24" x="1285.06" y="3085.84" width="127.99" height="123.42"/>
      <rect class="cls-24" x="1157.07" y="3085.84" width="127.99" height="123.42"/>
      <rect class="cls-24" x="1029.08" y="3085.84" width="127.99" height="123.42"/>
      <rect class="cls-24" x="901.1" y="3085.84" width="127.99" height="123.42"/>
      <rect class="cls-24" x="773.11" y="3085.84" width="127.99" height="123.42"/>
      <rect class="cls-24" x="645.12" y="3085.84" width="127.99" height="123.42"/>
      <rect class="cls-24" x="517.13" y="3085.84" width="127.99" height="123.42"/>
      <rect class="cls-24" x="389.14" y="3085.84" width="127.99" height="123.42"/>
      <rect class="cls-24" x="261.16" y="3085.84" width="127.99" height="123.42"/>
      <rect class="cls-24" x="133.17" y="3085.84" width="127.99" height="123.42"/>
      <rect class="cls-24" x="5.18" y="3085.84" width="127.99" height="123.42"/>
      <rect class="cls-43" x="1797.01" y="2962.43" width="127.99" height="123.42"/>
      <rect class="cls-43" x="1669.02" y="2962.43" width="127.99" height="123.42"/>
      <rect class="cls-43" x="1541.04" y="2962.43" width="127.99" height="123.42"/>
      <rect class="cls-43" x="1413.05" y="2962.43" width="127.99" height="123.42"/>
      <rect class="cls-43" x="1285.06" y="2962.43" width="127.99" height="123.42"/>
      <rect class="cls-43" x="1157.07" y="2962.43" width="127.99" height="123.42"/>
      <rect class="cls-43" x="1029.08" y="2962.43" width="127.99" height="123.42"/>
      <rect class="cls-43" x="901.1" y="2962.43" width="127.99" height="123.42"/>
      <rect class="cls-43" x="773.11" y="2962.43" width="127.99" height="123.42"/>
      <rect class="cls-23" x="645.12" y="2962.43" width="127.99" height="123.42"/>
      <rect class="cls-22" x="517.13" y="2962.43" width="127.99" height="123.42"/>
      <rect class="cls-22" x="389.14" y="2962.43" width="127.99" height="123.42"/>
      <rect class="cls-22" x="261.16" y="2962.43" width="127.99" height="123.42"/>
      <rect class="cls-43" x="133.17" y="2962.43" width="127.99" height="123.42"/>
      <rect class="cls-43" x="5.18" y="2962.43" width="127.99" height="123.42"/>
      <rect class="cls-18" x="1797.01" y="2839.01" width="127.99" height="123.42"/>
      <rect class="cls-18" x="1669.02" y="2839.01" width="127.99" height="123.42"/>
      <rect class="cls-18" x="1541.04" y="2839.01" width="127.99" height="123.42"/>
      <rect class="cls-18" x="1413.05" y="2839.01" width="127.99" height="123.42"/>
      <rect class="cls-18" x="1285.06" y="2839.01" width="127.99" height="123.42"/>
      <rect class="cls-18" x="1157.07" y="2839.01" width="127.99" height="123.42"/>
      <rect class="cls-18" x="1029.08" y="2839.01" width="127.99" height="123.42"/>
      <rect class="cls-22" x="901.1" y="2839.01" width="127.99" height="123.42"/>
      <rect class="cls-22" x="773.11" y="2839.01" width="127.99" height="123.42"/>
      <rect class="cls-22" x="645.12" y="2839.01" width="127.99" height="123.42"/>
      <rect class="cls-22" x="517.13" y="2839.01" width="127.99" height="123.42"/>
      <rect class="cls-22" x="389.14" y="2839.01" width="127.99" height="123.42"/>
      <rect class="cls-22" x="261.16" y="2839.01" width="127.99" height="123.42"/>
      <rect class="cls-22" x="133.17" y="2839.01" width="127.99" height="123.42"/>
      <rect class="cls-22" x="5.18" y="2839.01" width="127.99" height="123.42"/>
      <rect class="cls-20" x="1797.01" y="2715.6" width="127.99" height="123.42"/>
      <rect class="cls-20" x="1669.02" y="2715.6" width="127.99" height="123.42"/>
      <rect class="cls-20" x="1541.04" y="2715.6" width="127.99" height="123.42"/>
      <rect class="cls-20" x="1413.05" y="2715.6" width="127.99" height="123.42"/>
      <rect class="cls-20" x="1285.06" y="2715.6" width="127.99" height="123.42"/>
      <rect class="cls-20" x="1157.07" y="2715.6" width="127.99" height="123.42"/>
      <rect class="cls-20" x="1029.08" y="2715.6" width="127.99" height="123.42"/>
      <rect class="cls-22" x="901.1" y="2715.6" width="127.99" height="123.42"/>
      <rect class="cls-22" x="773.11" y="2715.6" width="127.99" height="123.42"/>
      <rect class="cls-22" x="645.12" y="2715.6" width="127.99" height="123.42"/>
      <rect class="cls-22" x="517.13" y="2715.6" width="127.99" height="123.42"/>
      <rect class="cls-22" x="389.14" y="2715.6" width="127.99" height="123.42"/>
      <rect class="cls-22" x="261.16" y="2715.6" width="127.99" height="123.42"/>
      <rect class="cls-22" x="133.17" y="2715.6" width="127.99" height="123.42"/>
      <rect class="cls-22" x="5.18" y="2715.6" width="127.99" height="123.42"/>
      <rect class="cls-22" x="1797.01" y="2592.18" width="127.99" height="123.42"/>
      <rect class="cls-22" x="1669.02" y="2592.18" width="127.99" height="123.42"/>
      <rect class="cls-22" x="1541.04" y="2592.18" width="127.99" height="123.42"/>
      <rect class="cls-22" x="1413.05" y="2592.18" width="127.99" height="123.42"/>
      <rect class="cls-22" x="1285.06" y="2592.18" width="127.99" height="123.42"/>
      <rect class="cls-22" x="1157.07" y="2592.18" width="127.99" height="123.42"/>
      <rect class="cls-22" x="1029.08" y="2592.18" width="127.99" height="123.42"/>
      <rect class="cls-22" x="901.1" y="2592.18" width="127.99" height="123.42"/>
      <rect class="cls-22" x="773.11" y="2592.18" width="127.99" height="123.42"/>
      <rect class="cls-22" x="645.12" y="2592.18" width="127.99" height="123.42"/>
      <rect class="cls-22" x="517.13" y="2592.18" width="127.99" height="123.42"/>
      <rect class="cls-22" x="389.14" y="2592.18" width="127.99" height="123.42"/>
      <rect class="cls-22" x="261.16" y="2592.18" width="127.99" height="123.42"/>
      <rect class="cls-22" x="133.17" y="2592.18" width="127.99" height="123.42"/>
      <rect class="cls-22" x="5.18" y="2592.18" width="127.99" height="123.42"/>
      <rect class="cls-22" x="1797.01" y="2468.76" width="127.99" height="123.42"/>
      <rect class="cls-22" x="1669.02" y="2468.76" width="127.99" height="123.42"/>
      <rect class="cls-22" x="1541.04" y="2468.76" width="127.99" height="123.42"/>
      <rect class="cls-22" x="1413.05" y="2468.76" width="127.99" height="123.42"/>
      <rect class="cls-22" x="1285.06" y="2468.76" width="127.99" height="123.42"/>
      <rect class="cls-22" x="1157.07" y="2468.76" width="127.99" height="123.42"/>
      <rect class="cls-22" x="1029.08" y="2468.76" width="127.99" height="123.42"/>
      <rect class="cls-22" x="901.1" y="2468.76" width="127.99" height="123.42"/>
      <rect class="cls-22" x="773.11" y="2468.76" width="127.99" height="123.42"/>
      <rect class="cls-22" x="645.12" y="2468.76" width="127.99" height="123.42"/>
      <rect class="cls-22" x="517.13" y="2468.76" width="127.99" height="123.42"/>
      <rect class="cls-22" x="389.14" y="2468.76" width="127.99" height="123.42"/>
      <rect class="cls-22" x="261.16" y="2468.76" width="127.99" height="123.42"/>
      <rect class="cls-22" x="133.17" y="2468.76" width="127.99" height="123.42"/>
      <rect class="cls-14" x="5.18" y="2468.76" width="127.99" height="123.42"/>
      <rect class="cls-22" x="1797.01" y="2345.35" width="127.99" height="123.42"/>
      <rect class="cls-22" x="1669.02" y="2345.35" width="127.99" height="123.42"/>
      <rect class="cls-22" x="1541.04" y="2345.35" width="127.99" height="123.42"/>
      <rect class="cls-22" x="1413.05" y="2345.35" width="127.99" height="123.42"/>
      <rect class="cls-22" x="1285.06" y="2345.35" width="127.99" height="123.42"/>
      <rect class="cls-22" x="1157.07" y="2345.35" width="127.99" height="123.42"/>
      <rect class="cls-22" x="1029.08" y="2345.35" width="127.99" height="123.42"/>
      <rect class="cls-22" x="901.1" y="2345.35" width="127.99" height="123.42"/>
      <rect class="cls-22" x="773.11" y="2345.35" width="127.99" height="123.42"/>
      <rect class="cls-22" x="645.12" y="2345.35" width="127.99" height="123.42"/>
      <rect class="cls-22" x="517.13" y="2345.35" width="127.99" height="123.42"/>
      <rect class="cls-22" x="389.14" y="2345.35" width="127.99" height="123.42"/>
      <rect class="cls-22" x="261.16" y="2345.35" width="127.99" height="123.42"/>
      <rect class="cls-39" x="133.17" y="2345.35" width="127.99" height="123.42"/>
      <rect class="cls-39" x="5.18" y="2345.35" width="127.99" height="123.42"/>
      <rect class="cls-22" x="1797.01" y="2221.93" width="127.99" height="123.42"/>
      <rect class="cls-22" x="1669.02" y="2221.93" width="127.99" height="123.42"/>
      <rect class="cls-22" x="1541.04" y="2221.93" width="127.99" height="123.42"/>
      <rect class="cls-22" x="1413.05" y="2221.93" width="127.99" height="123.42"/>
      <rect class="cls-22" x="1285.06" y="2221.93" width="127.99" height="123.42"/>
      <rect class="cls-22" x="1157.07" y="2221.93" width="127.99" height="123.42"/>
      <rect class="cls-22" x="1029.08" y="2221.93" width="127.99" height="123.42"/>
      <rect class="cls-22" x="901.1" y="2221.93" width="127.99" height="123.42"/>
      <rect class="cls-22" x="773.11" y="2221.93" width="127.99" height="123.42"/>
      <rect class="cls-22" x="645.12" y="2221.93" width="127.99" height="123.42"/>
      <rect class="cls-22" x="517.13" y="2221.93" width="127.99" height="123.42"/>
      <rect class="cls-22" x="389.14" y="2221.93" width="127.99" height="123.42"/>
      <rect class="cls-22" x="261.16" y="2221.93" width="127.99" height="123.42"/>
      <rect class="cls-17" x="133.17" y="2221.93" width="127.99" height="123.42"/>
      <rect class="cls-17" x="5.18" y="2221.93" width="127.99" height="123.42"/>
      <rect class="cls-22" x="1797.01" y="2098.52" width="127.99" height="123.42"/>
      <rect class="cls-22" x="1669.02" y="2098.52" width="127.99" height="123.42"/>
      <rect class="cls-22" x="1541.04" y="2098.52" width="127.99" height="123.42"/>
      <rect class="cls-22" x="1413.05" y="2098.52" width="127.99" height="123.42"/>
      <rect class="cls-22" x="1285.06" y="2098.52" width="127.99" height="123.42"/>
      <rect class="cls-21" x="1157.07" y="2098.52" width="127.99" height="123.42"/>
      <rect class="cls-31" x="1029.08" y="2098.52" width="127.99" height="123.42"/>
      <rect class="cls-31" x="901.1" y="2098.52" width="127.99" height="123.42"/>
      <rect class="cls-31" x="773.11" y="2098.52" width="127.99" height="123.42"/>
      <rect class="cls-31" x="645.12" y="2098.52" width="127.99" height="123.42"/>
      <rect class="cls-31" x="517.13" y="2098.52" width="127.99" height="123.42"/>
      <rect class="cls-31" x="389.14" y="2098.52" width="127.99" height="123.42"/>
      <rect class="cls-31" x="261.16" y="2098.52" width="127.99" height="123.42"/>
      <rect class="cls-31" x="133.17" y="2098.52" width="127.99" height="123.42"/>
      <rect class="cls-31" x="5.18" y="2098.52" width="127.99" height="123.42"/>
      <rect class="cls-22" x="1797.01" y="1975.1" width="127.99" height="123.42"/>
      <rect class="cls-22" x="1669.02" y="1975.1" width="127.99" height="123.42"/>
      <rect class="cls-22" x="1541.04" y="1975.1" width="127.99" height="123.42"/>
      <rect class="cls-22" x="1413.05" y="1975.1" width="127.99" height="123.42"/>
      <rect class="cls-22" x="1285.06" y="1975.1" width="127.99" height="123.42"/>
      <rect class="cls-11" x="1157.07" y="1975.1" width="127.99" height="123.42"/>
      <rect class="cls-8" x="1029.08" y="1975.1" width="127.99" height="123.42"/>
      <rect class="cls-8" x="901.1" y="1975.1" width="127.99" height="123.42"/>
      <rect class="cls-8" x="773.11" y="1975.1" width="127.99" height="123.42"/>
      <rect class="cls-8" x="645.12" y="1975.1" width="127.99" height="123.42"/>
      <rect class="cls-8" x="517.13" y="1975.1" width="127.99" height="123.42"/>
      <rect class="cls-8" x="389.14" y="1975.1" width="127.99" height="123.42"/>
      <rect class="cls-8" x="261.16" y="1975.1" width="127.99" height="123.42"/>
      <rect class="cls-8" x="133.17" y="1975.1" width="127.99" height="123.42"/>
      <rect class="cls-8" x="5.18" y="1975.1" width="127.99" height="123.42"/>
      <rect class="cls-22" x="1797.01" y="1851.69" width="127.99" height="123.42"/>
      <rect class="cls-22" x="1669.02" y="1851.69" width="127.99" height="123.42"/>
      <rect class="cls-22" x="1541.04" y="1851.69" width="127.99" height="123.42"/>
      <rect class="cls-22" x="1413.05" y="1851.69" width="127.99" height="123.42"/>
      <rect class="cls-41" x="1285.06" y="1851.69" width="127.99" height="123.42"/>
      <rect class="cls-41" x="1157.07" y="1851.69" width="127.99" height="123.42"/>
      <rect class="cls-41" x="1029.08" y="1851.69" width="127.99" height="123.42"/>
      <rect class="cls-41" x="901.1" y="1851.69" width="127.99" height="123.42"/>
      <rect class="cls-41" x="773.11" y="1851.69" width="127.99" height="123.42"/>
      <rect class="cls-41" x="645.12" y="1851.69" width="127.99" height="123.42"/>
      <rect class="cls-41" x="517.13" y="1851.69" width="127.99" height="123.42"/>
      <rect class="cls-41" x="389.14" y="1851.69" width="127.99" height="123.42"/>
      <rect class="cls-41" x="261.16" y="1851.69" width="127.99" height="123.42"/>
      <rect class="cls-41" x="133.17" y="1851.69" width="127.99" height="123.42"/>
      <rect class="cls-41" x="5.18" y="1851.69" width="127.99" height="123.42"/>
      <rect class="cls-3" x="1797.01" y="1728.27" width="127.99" height="123.42"/>
      <rect class="cls-3" x="1669.02" y="1728.27" width="127.99" height="123.42"/>
      <rect class="cls-3" x="1541.04" y="1728.27" width="127.99" height="123.42"/>
      <rect class="cls-3" x="1413.05" y="1728.27" width="127.99" height="123.42"/>
      <rect class="cls-3" x="1285.06" y="1728.27" width="127.99" height="123.42"/>
      <rect class="cls-3" x="1157.07" y="1728.27" width="127.99" height="123.42"/>
      <rect class="cls-3" x="1029.08" y="1728.27" width="127.99" height="123.42"/>
      <rect class="cls-3" x="901.1" y="1728.27" width="127.99" height="123.42"/>
      <rect class="cls-3" x="773.11" y="1728.27" width="127.99" height="123.42"/>
      <rect class="cls-3" x="645.12" y="1728.27" width="127.99" height="123.42"/>
      <rect class="cls-3" x="517.13" y="1728.27" width="127.99" height="123.42"/>
      <rect class="cls-3" x="389.14" y="1728.27" width="127.99" height="123.42"/>
      <rect class="cls-3" x="261.16" y="1728.27" width="127.99" height="123.42"/>
      <rect class="cls-3" x="133.17" y="1728.27" width="127.99" height="123.42"/>
      <rect class="cls-3" x="5.18" y="1728.27" width="127.99" height="123.42"/>
      <rect class="cls-28" x="1797.01" y="1604.86" width="127.99" height="123.42"/>
      <rect class="cls-28" x="1669.02" y="1604.86" width="127.99" height="123.42"/>
      <rect class="cls-28" x="1541.04" y="1604.86" width="127.99" height="123.42"/>
      <rect class="cls-28" x="1413.05" y="1604.86" width="127.99" height="123.42"/>
      <rect class="cls-28" x="1285.06" y="1604.86" width="127.99" height="123.42"/>
      <rect class="cls-28" x="1157.07" y="1604.86" width="127.99" height="123.42"/>
      <rect class="cls-8" x="1029.08" y="1604.86" width="127.99" height="123.42"/>
      <rect class="cls-8" x="901.1" y="1604.86" width="127.99" height="123.42"/>
      <rect class="cls-25" x="773.11" y="1604.86" width="127.99" height="123.42"/>
      <rect class="cls-28" x="645.12" y="1604.86" width="127.99" height="123.42"/>
      <rect class="cls-28" x="517.13" y="1604.86" width="127.99" height="123.42"/>
      <rect class="cls-28" x="389.14" y="1604.86" width="127.99" height="123.42"/>
      <rect class="cls-8" x="261.16" y="1604.86" width="127.99" height="123.42"/>
      <rect class="cls-8" x="133.17" y="1604.86" width="127.99" height="123.42"/>
      <rect class="cls-8" x="5.18" y="1604.86" width="127.99" height="123.42"/>
      <rect class="cls-5" x="1797.01" y="1481.44" width="127.99" height="123.42"/>
      <rect class="cls-5" x="1669.02" y="1481.44" width="127.99" height="123.42"/>
      <rect class="cls-5" x="1541.04" y="1481.44" width="127.99" height="123.42"/>
      <rect class="cls-5" x="1413.05" y="1481.44" width="127.99" height="123.42"/>
      <rect class="cls-5" x="1285.06" y="1481.44" width="127.99" height="123.42"/>
      <rect class="cls-8" x="1157.07" y="1481.44" width="127.99" height="123.42"/>
      <rect class="cls-8" x="1029.08" y="1481.44" width="127.99" height="123.42"/>
      <rect class="cls-8" x="901.1" y="1481.44" width="127.99" height="123.42"/>
      <rect class="cls-8" x="773.11" y="1481.44" width="127.99" height="123.42"/>
      <rect class="cls-8" x="645.12" y="1481.44" width="127.99" height="123.42"/>
      <rect class="cls-5" x="517.13" y="1481.44" width="127.99" height="123.42"/>
      <rect class="cls-5" x="389.14" y="1481.44" width="127.99" height="123.42"/>
      <rect class="cls-8" x="261.16" y="1481.44" width="127.99" height="123.42"/>
      <rect class="cls-8" x="133.17" y="1481.44" width="127.99" height="123.42"/>
      <rect class="cls-8" x="5.18" y="1481.44" width="127.99" height="123.42"/>
      <rect class="cls-42" x="1797.01" y="1358.02" width="127.99" height="123.42"/>
      <rect class="cls-42" x="1669.02" y="1358.02" width="127.99" height="123.42"/>
      <rect class="cls-42" x="1541.04" y="1358.02" width="127.99" height="123.42"/>
      <rect class="cls-42" x="1413.05" y="1358.02" width="127.99" height="123.42"/>
      <rect class="cls-42" x="1285.06" y="1358.02" width="127.99" height="123.42"/>
      <rect class="cls-8" x="1157.07" y="1358.02" width="127.99" height="123.42"/>
      <rect class="cls-8" x="1029.08" y="1358.02" width="127.99" height="123.42"/>
      <rect class="cls-8" x="901.1" y="1358.02" width="127.99" height="123.42"/>
      <rect class="cls-8" x="773.11" y="1358.02" width="127.99" height="123.42"/>
      <rect class="cls-42" x="645.12" y="1358.02" width="127.99" height="123.42"/>
      <rect class="cls-42" x="517.13" y="1358.02" width="127.99" height="123.42"/>
      <rect class="cls-42" x="389.14" y="1358.02" width="127.99" height="123.42"/>
      <rect class="cls-8" x="261.16" y="1358.02" width="127.99" height="123.42"/>
      <rect class="cls-8" x="133.17" y="1358.02" width="127.99" height="123.42"/>
      <rect class="cls-8" x="5.18" y="1358.02" width="127.99" height="123.42"/>
      <rect class="cls-13" x="1797.01" y="1234.61" width="127.99" height="123.42"/>
      <rect class="cls-13" x="1669.02" y="1234.61" width="127.99" height="123.42"/>
      <rect class="cls-13" x="1541.04" y="1234.61" width="127.99" height="123.42"/>
      <rect class="cls-13" x="1413.05" y="1234.61" width="127.99" height="123.42"/>
      <rect class="cls-13" x="1285.06" y="1234.61" width="127.99" height="123.42"/>
      <rect class="cls-13" x="1157.07" y="1234.61" width="127.99" height="123.42"/>
      <rect class="cls-13" x="1029.08" y="1234.61" width="127.99" height="123.42"/>
      <rect class="cls-13" x="901.1" y="1234.61" width="127.99" height="123.42"/>
      <rect class="cls-13" x="773.11" y="1234.61" width="127.99" height="123.42"/>
      <rect class="cls-13" x="645.12" y="1234.61" width="127.99" height="123.42"/>
      <rect class="cls-13" x="517.13" y="1234.61" width="127.99" height="123.42"/>
      <rect class="cls-13" x="389.14" y="1234.61" width="127.99" height="123.42"/>
      <rect class="cls-8" x="261.16" y="1234.61" width="127.99" height="123.42"/>
      <rect class="cls-8" x="133.17" y="1234.61" width="127.99" height="123.42"/>
      <rect class="cls-8" x="5.18" y="1234.61" width="127.99" height="123.42"/>
      <rect class="cls-36" x="1797.01" y="1111.19" width="127.99" height="123.42"/>
      <rect class="cls-36" x="1669.02" y="1111.19" width="127.99" height="123.42"/>
      <rect class="cls-36" x="1541.04" y="1111.19" width="127.99" height="123.42"/>
      <rect class="cls-36" x="1413.05" y="1111.19" width="127.99" height="123.42"/>
      <rect class="cls-36" x="1285.06" y="1111.19" width="127.99" height="123.42"/>
      <rect class="cls-36" x="1157.07" y="1111.19" width="127.99" height="123.42"/>
      <rect class="cls-36" x="1029.08" y="1111.19" width="127.99" height="123.42"/>
      <rect class="cls-36" x="901.1" y="1111.19" width="127.99" height="123.42"/>
      <rect class="cls-36" x="773.11" y="1111.19" width="127.99" height="123.42"/>
      <rect class="cls-36" x="645.12" y="1111.19" width="127.99" height="123.42"/>
      <rect class="cls-36" x="517.13" y="1111.19" width="127.99" height="123.42"/>
      <rect class="cls-36" x="389.14" y="1111.19" width="127.99" height="123.42"/>
      <rect class="cls-36" x="261.16" y="1111.19" width="127.99" height="123.42"/>
      <rect class="cls-8" x="133.17" y="1111.19" width="127.99" height="123.42"/>
      <rect class="cls-8" x="5.18" y="1111.19" width="127.99" height="123.42"/>
      <rect class="cls-30" x="1797.01" y="987.78" width="127.99" height="123.42"/>
      <rect class="cls-30" x="1669.02" y="987.78" width="127.99" height="123.42"/>
      <rect class="cls-30" x="1541.04" y="987.78" width="127.99" height="123.42"/>
      <rect class="cls-30" x="1413.05" y="987.78" width="127.99" height="123.42"/>
      <rect class="cls-30" x="1285.06" y="987.78" width="127.99" height="123.42"/>
      <rect class="cls-10" x="1157.07" y="987.78" width="127.99" height="123.42"/>
      <rect class="cls-10" x="1029.08" y="987.78" width="127.99" height="123.42"/>
      <rect class="cls-10" x="901.1" y="987.78" width="127.99" height="123.42"/>
      <rect class="cls-10" x="773.11" y="987.78" width="127.99" height="123.42"/>
      <rect class="cls-10" x="645.12" y="987.78" width="127.99" height="123.42"/>
      <rect class="cls-10" x="517.13" y="987.78" width="127.99" height="123.42"/>
      <rect class="cls-10" x="389.14" y="987.78" width="127.99" height="123.42"/>
      <rect class="cls-10" x="261.16" y="987.78" width="127.99" height="123.42"/>
      <rect class="cls-10" x="133.17" y="987.78" width="127.99" height="123.42"/>
      <rect class="cls-10" x="5.18" y="987.78" width="127.99" height="123.42"/>
      <rect class="cls-30" x="1797.01" y="864.36" width="127.99" height="123.42"/>
      <rect class="cls-30" x="1669.02" y="864.36" width="127.99" height="123.42"/>
      <rect class="cls-30" x="1541.04" y="864.36" width="127.99" height="123.42"/>
      <rect class="cls-30" x="1413.05" y="864.36" width="127.99" height="123.42"/>
      <rect class="cls-30" x="1285.06" y="864.36" width="127.99" height="123.42"/>
      <rect class="cls-7" x="1157.07" y="864.36" width="127.99" height="123.42"/>
      <rect class="cls-7" x="1029.08" y="864.36" width="127.99" height="123.42"/>
      <rect class="cls-7" x="901.1" y="864.36" width="127.99" height="123.42"/>
      <rect class="cls-7" x="773.11" y="864.36" width="127.99" height="123.42"/>
      <rect class="cls-7" x="645.12" y="864.36" width="127.99" height="123.42"/>
      <rect class="cls-7" x="517.13" y="864.36" width="127.99" height="123.42"/>
      <rect class="cls-7" x="389.14" y="864.36" width="127.99" height="123.42"/>
      <rect class="cls-7" x="261.16" y="864.36" width="127.99" height="123.42"/>
      <rect class="cls-7" x="133.17" y="864.36" width="127.99" height="123.42"/>
      <rect class="cls-7" x="5.18" y="864.36" width="127.99" height="123.42"/>
      <rect class="cls-30" x="1797.01" y="740.95" width="127.99" height="123.42"/>
      <rect class="cls-30" x="1669.02" y="740.95" width="127.99" height="123.42"/>
      <rect class="cls-30" x="1541.04" y="740.95" width="127.99" height="123.42"/>
      <rect class="cls-30" x="1413.05" y="740.95" width="127.99" height="123.42"/>
      <rect class="cls-30" x="1285.06" y="740.95" width="127.99" height="123.42"/>
      <rect class="cls-16" x="1157.07" y="740.95" width="127.99" height="123.42"/>
      <rect class="cls-16" x="1029.08" y="740.95" width="127.99" height="123.42"/>
      <rect class="cls-16" x="901.1" y="740.95" width="127.99" height="123.42"/>
      <rect class="cls-16" x="773.11" y="740.95" width="127.99" height="123.42"/>
      <rect class="cls-16" x="645.12" y="740.95" width="127.99" height="123.42"/>
      <rect class="cls-16" x="517.13" y="740.95" width="127.99" height="123.42"/>
      <rect class="cls-16" x="389.14" y="740.95" width="127.99" height="123.42"/>
      <rect class="cls-16" x="261.16" y="740.95" width="127.99" height="123.42"/>
      <rect class="cls-16" x="133.17" y="740.95" width="127.99" height="123.42"/>
      <rect class="cls-16" x="5.18" y="740.95" width="127.99" height="123.42"/>
      <rect class="cls-30" x="1797.01" y="617.53" width="127.99" height="123.42"/>
      <rect class="cls-30" x="1669.02" y="617.53" width="127.99" height="123.42"/>
      <rect class="cls-30" x="1541.04" y="617.53" width="127.99" height="123.42"/>
      <rect class="cls-30" x="1413.05" y="617.53" width="127.99" height="123.42"/>
      <rect class="cls-30" x="1285.06" y="617.53" width="127.99" height="123.42"/>
      <rect class="cls-30" x="1157.07" y="617.53" width="127.99" height="123.42"/>
      <rect class="cls-29" x="1029.08" y="617.53" width="127.99" height="123.42"/>
      <rect class="cls-27" x="901.1" y="617.53" width="127.99" height="123.42"/>
      <rect class="cls-27" x="773.11" y="617.53" width="127.99" height="123.42"/>
      <rect class="cls-27" x="645.12" y="617.53" width="127.99" height="123.42"/>
      <rect class="cls-27" x="517.13" y="617.53" width="127.99" height="123.42"/>
      <rect class="cls-27" x="389.14" y="617.53" width="127.99" height="123.42"/>
      <rect class="cls-27" x="261.16" y="617.53" width="127.99" height="123.42"/>
      <rect class="cls-40" x="133.17" y="617.53" width="127.99" height="123.42"/>
      <rect class="cls-40" x="5.18" y="617.53" width="127.99" height="123.42"/>
      <rect class="cls-30" x="1797.01" y="494.11" width="127.99" height="123.42"/>
      <rect class="cls-30" x="1669.02" y="494.11" width="127.99" height="123.42"/>
      <rect class="cls-30" x="1541.04" y="494.11" width="127.99" height="123.42"/>
      <rect class="cls-30" x="1413.05" y="494.11" width="127.99" height="123.42"/>
      <rect class="cls-30" x="1285.06" y="494.11" width="127.99" height="123.42"/>
      <rect class="cls-30" x="1157.07" y="494.11" width="127.99" height="123.42"/>
      <rect class="cls-30" x="1029.08" y="494.11" width="127.99" height="123.42"/>
      <rect class="cls-30" x="901.1" y="494.11" width="127.99" height="123.42"/>
      <rect class="cls-30" x="773.11" y="494.11" width="127.99" height="123.42"/>
      <rect class="cls-37" x="645.12" y="494.11" width="127.99" height="123.42"/>
      <rect class="cls-37" x="517.13" y="494.11" width="127.99" height="123.42"/>
      <rect class="cls-40" x="389.14" y="494.11" width="127.99" height="123.42"/>
      <rect class="cls-40" x="261.16" y="494.11" width="127.99" height="123.42"/>
      <rect class="cls-40" x="133.17" y="494.11" width="127.99" height="123.42"/>
      <rect class="cls-40" x="5.18" y="494.11" width="127.99" height="123.42"/>
      <rect class="cls-33" x="1797.01" y="370.7" width="127.99" height="123.42"/>
      <rect class="cls-33" x="1669.02" y="370.7" width="127.99" height="123.42"/>
      <rect class="cls-33" x="1541.04" y="370.7" width="127.99" height="123.42"/>
      <rect class="cls-30" x="1413.05" y="370.7" width="127.99" height="123.42"/>
      <rect class="cls-30" x="1285.06" y="370.7" width="127.99" height="123.42"/>
      <rect class="cls-30" x="1157.07" y="370.7" width="127.99" height="123.42"/>
      <rect class="cls-30" x="1029.08" y="370.7" width="127.99" height="123.42"/>
      <rect class="cls-30" x="901.1" y="370.7" width="127.99" height="123.42"/>
      <rect class="cls-33" x="773.11" y="370.7" width="127.99" height="123.42"/>
      <rect class="cls-33" x="645.12" y="370.7" width="127.99" height="123.42"/>
      <rect class="cls-33" x="517.13" y="370.7" width="127.99" height="123.42"/>
      <rect class="cls-40" x="389.14" y="370.7" width="127.99" height="123.42"/>
      <rect class="cls-40" x="261.16" y="370.7" width="127.99" height="123.42"/>
      <rect class="cls-40" x="133.17" y="370.7" width="127.99" height="123.42"/>
      <rect class="cls-40" x="5.18" y="370.7" width="127.99" height="123.42"/>
      <rect class="cls-38" x="1797.01" y="247.28" width="127.99" height="123.42"/>
      <rect class="cls-38" x="1669.02" y="247.28" width="127.99" height="123.42"/>
      <rect class="cls-38" x="1541.04" y="247.28" width="127.99" height="123.42"/>
      <rect class="cls-38" x="1413.05" y="247.28" width="127.99" height="123.42"/>
      <rect class="cls-38" x="1285.06" y="247.28" width="127.99" height="123.42"/>
      <rect class="cls-38" x="1157.07" y="247.28" width="127.99" height="123.42"/>
      <rect class="cls-38" x="1029.08" y="247.28" width="127.99" height="123.42"/>
      <rect class="cls-38" x="901.1" y="247.28" width="127.99" height="123.42"/>
      <rect class="cls-38" x="773.11" y="247.28" width="127.99" height="123.42"/>
      <rect class="cls-38" x="645.12" y="247.28" width="127.99" height="123.42"/>
      <rect class="cls-38" x="517.13" y="247.28" width="127.99" height="123.42"/>
      <rect class="cls-40" x="389.14" y="247.28" width="127.99" height="123.42"/>
      <rect class="cls-40" x="261.16" y="247.28" width="127.99" height="123.42"/>
      <rect class="cls-40" x="133.17" y="247.28" width="127.99" height="123.42"/>
      <rect class="cls-40" x="5.18" y="247.28" width="127.99" height="123.42"/>
      <rect class="cls-1" x="1797.01" y="123.87" width="127.99" height="123.42"/>
      <rect class="cls-1" x="1669.02" y="123.87" width="127.99" height="123.42"/>
      <rect class="cls-1" x="1541.04" y="123.87" width="127.99" height="123.42"/>
      <rect class="cls-1" x="1413.05" y="123.87" width="127.99" height="123.42"/>
      <rect class="cls-1" x="1285.06" y="123.87" width="127.99" height="123.42"/>
      <rect class="cls-1" x="1157.07" y="123.87" width="127.99" height="123.42"/>
      <rect class="cls-1" x="1029.08" y="123.87" width="127.99" height="123.42"/>
      <rect class="cls-1" x="901.1" y="123.87" width="127.99" height="123.42"/>
      <rect class="cls-1" x="773.11" y="123.87" width="127.99" height="123.42"/>
      <rect class="cls-40" x="645.12" y="123.87" width="127.99" height="123.42"/>
      <rect class="cls-40" x="517.13" y="123.87" width="127.99" height="123.42"/>
      <rect class="cls-40" x="389.14" y="123.87" width="127.99" height="123.42"/>
      <rect class="cls-40" x="261.16" y="123.87" width="127.99" height="123.42"/>
      <rect class="cls-40" x="133.17" y="123.87" width="127.99" height="123.42"/>
      <rect class="cls-40" x="5.18" y="123.87" width="127.99" height="123.42"/>
      <rect class="cls-32" x="1797.01" y=".45" width="127.99" height="123.42"/>
      <rect class="cls-32" x="1669.02" y=".45" width="127.99" height="123.42"/>
      <rect class="cls-32" x="1541.04" y=".45" width="127.99" height="123.42"/>
      <rect class="cls-40" x="1413.05" y=".45" width="127.99" height="123.42"/>
      <rect class="cls-40" x="1285.06" y=".45" width="127.99" height="123.42"/>
      <rect class="cls-40" x="1157.07" y=".45" width="127.99" height="123.42"/>
      <rect class="cls-32" x="1029.08" y=".45" width="127.99" height="123.42"/>
      <rect class="cls-32" x="901.1" y=".45" width="127.99" height="123.42"/>
      <rect class="cls-32" x="773.11" y=".45" width="127.99" height="123.42"/>
      <rect class="cls-40" x="645.12" y=".45" width="127.99" height="123.42"/>
      <rect class="cls-40" x="517.13" y=".45" width="127.99" height="123.42"/>
      <rect class="cls-40" x="389.14" y=".45" width="127.99" height="123.42"/>
      <rect class="cls-40" x="261.16" y=".45" width="127.99" height="123.42"/>
      <rect class="cls-40" x="133.17" y=".45" width="127.99" height="123.42"/>
      <rect class="cls-40" x="5.18" y=".45" width="127.99" height="123.42"/>
    </g>
  </g>
</svg>