<?xml version="1.0" encoding="UTF-8"?>
<svg id="Layer_2" data-name="Layer 2" xmlns="http://www.w3.org/2000/svg" viewBox="0 0 499.05 409.88">
  <defs>
    <style>

      .cls-2 {
        fill: #00aeef;
      }

      .cls-3 {
        fill: #f37421;
      }

      .cls-4 {
        fill: #fff200;
      }

      .cls-5 {
        fill: #fff;
      }

      .cls-6 {
        fill: #ed2024;
        stroke: #a01d21;
      }

      .cls-7 {
        fill: #8dc63f;
      }

      .cls-8 {
        fill: #7152a2;
      }
    </style>
  </defs>
  <path class="cls-6" d="m212.53,57.24c2.52,16.6-7.03,31.55-30.02,26.36-16.15-3.65-30.02-11.8-30.02-26.36s13.44-26.36,30.02-26.36,27.83,11.96,30.02,26.36Z"/>
  <path class="cls-7" d="m251.46,334.71c2.52,16.6-7.03,31.55-30.02,26.36-16.15-3.65-30.02-11.8-30.02-26.36s13.44-26.36,30.02-26.36,27.83,11.96,30.02,26.36Z"/>
  <path class="cls-5" d="m360.11,49.06c2.52,16.6-7.03,31.55-30.02,26.36-16.15-3.65-30.02-11.8-30.02-26.36s13.44-26.36,30.02-26.36,27.83,11.96,30.02,26.36Z"/>
  <path class="cls-1" d="m453.3,156.38c2.52,16.6-7.03,31.55-30.02,26.36-16.15-3.65-30.02-11.8-30.02-26.36s13.44-26.36,30.02-26.36,27.83,11.96,30.02,26.36Z"/>
  <path class="cls-8" d="m45.56,146.02c-2.55-16.52,7.13-31.4,30.42-26.23,16.36,3.63,30.42,11.74,30.42,26.23s-13.62,26.23-30.42,26.23-28.21-11.9-30.42-26.23Z"/>
  <path class="cls-4" d="m360.11,252c2.52,16.6-7.03,31.55-30.02,26.36-16.15-3.65-30.02-11.8-30.02-26.36s13.44-26.36,30.02-26.36,27.83,11.96,30.02,26.36Z"/>
  <path class="cls-2" d="m121.09,261.18c2.52,16.6-7.03,31.55-30.02,26.36-16.15-3.65-30.02-11.8-30.02-26.36s13.44-26.36,30.02-26.36,27.83,11.96,30.02,26.36Z"/>
  <path class="cls-3" d="m343.59,123.77c2.52,16.6-7.03,31.55-30.02,26.36-16.15-3.65-30.02-11.8-30.02-26.36s13.44-26.36,30.02-26.36,27.83,11.96,30.02,26.36Z"/>
  <path class="cls-1" d="m161.17,125.12l-11.45,15.3c-5.01,6.69-6.03,15.55-2.67,23.21l6.88,15.69c3.43,7.82,2.28,16.89-2.98,23.61h0c-7.38,9.42-6.37,22.92,2.32,31.14,15.65,14.81,19.83-22.87,35.69-24.69,15.97-1.83,7.32,44.5,30.54,28.93,6.05-4.05,12.14-8.01,19.38-7.25l14.63,1.54c13.23,1.39,24.92-8.62,25.58-21.91l1.62-32.4c.57-11.4-7.25-21.53-18.43-23.86l-23.63-4.93c-4.68-.98-8.94-3.37-12.2-6.86l-17.25-18.45c-3.94-4.22-9.32-6.81-15.07-7.28l-12.53-1.01c-7.94-.64-15.66,2.84-20.44,9.22Z"/>
  <path class="cls-1" d="m187.34,245.56c3.3-2.66,7.92-2.95,11.54-.73,6.14,3.76,13.43,9.95,5.91,15.05-8.76,5.93-15.61-3.96-18.48-9.27-.92-1.7-.48-3.83,1.03-5.04h0Z"/>
</svg>