<?xml version="1.0" encoding="UTF-8"?>
<svg id="Layer_2" data-name="Layer 2" xmlns="http://www.w3.org/2000/svg" viewBox="0 0 474.75 410.88">
  <defs>
    <style>
      .cls-1, .cls-2, .cls-3, .cls-4, .cls-5, .cls-6, .cls-7, .cls-8, .cls-9, .cls-10 {
        stroke-miterlimit: 10;
      }

      .cls-1, .cls-2, .cls-3, .cls-4, .cls-5, .cls-6, .cls-8, .cls-9, .cls-10 {
        stroke: #8a6929;
      }

      .cls-2 {
        fill: #00aeef;
      }

      .cls-3 {
        fill: #f37421;
      }

      .cls-4 {
        fill: #fff200;
      }

      .cls-5 {
        fill: #fff;
      }

      .cls-6 {
        fill: #e9c3a0;
      }

      .cls-7 {
        fill: #ed2024;
        stroke: #a01d21;
      }

      .cls-8 {
        fill: #bc7c68;
      }

      .cls-9 {
        fill: #8dc63f;
      }

      .cls-10 {
        fill: #7152a2;
      }
    </style>
  </defs>
  <g>
    <path class="cls-8" d="m469.76,198.25l-2.74,11.38c-4.74,19.71-18.03,36.3-36.29,45.09-10.73,5.17-24.68,9.79-42.56,12.33-17.8,2.52-31.37,17.11-32.86,35.02-3.11,37.37-15.54,94.31-61.93,103.66-69.96,14.1-199.09,1.02-274.25-107.83-10.64-15.41-16.18-33.77-16.18-52.49v-20.46h.01c17.8,96.59,130.09,171.04,248.93,171.04,51.54,0,90.33-54.49,86.44-98.89-2.09-23.92,14.08-45.49,36.98-50.24,46.82-9.7,82.48-8.41,94.45-48.61Z"/>
    <path class="cls-6" d="m469.76,198.25c-11.97,40.2-47.63,38.91-94.45,48.61-22.9,4.75-39.07,26.32-36.98,50.24,3.89,44.4-34.9,98.89-86.44,98.89-118.84,0-231.13-74.45-248.93-171.04-1.62-8.73-2.46-17.64-2.46-26.7C.5,89.03,105.54.5,235.13.5s265.72,93.32,234.63,197.75Z"/>
  </g>
  <path class="cls-7" d="m202.57,57.74c2.52,16.6-7.03,31.55-30.02,26.36-16.15-3.65-30.02-11.8-30.02-26.36s13.44-26.36,30.02-26.36,27.83,11.96,30.02,26.36Z"/>
  <path class="cls-9" d="m241.5,335.21c2.52,16.6-7.03,31.55-30.02,26.36-16.15-3.65-30.02-11.8-30.02-26.36s13.44-26.36,30.02-26.36,27.83,11.96,30.02,26.36Z"/>
  <path class="cls-5" d="m350.15,49.56c2.52,16.6-7.03,31.55-30.02,26.36-16.15-3.65-30.02-11.8-30.02-26.36s13.44-26.36,30.02-26.36,27.83,11.96,30.02,26.36Z"/>
  <path class="cls-1" d="m443.34,156.88c2.52,16.6-7.03,31.55-30.02,26.36-16.15-3.65-30.02-11.8-30.02-26.36s13.44-26.36,30.02-26.36,27.83,11.96,30.02,26.36Z"/>
  <path class="cls-10" d="m35.6,146.53c-2.55-16.52,7.13-31.4,30.42-26.23,16.36,3.63,30.42,11.74,30.42,26.23s-13.62,26.23-30.42,26.23-28.21-11.9-30.42-26.23Z"/>
  <path class="cls-4" d="m338.36,241.5c2.52,16.6-7.03,31.55-30.02,26.36-16.15-3.65-30.02-11.8-30.02-26.36s13.44-26.36,30.02-26.36,27.83,11.96,30.02,26.36Z"/>
  <path class="cls-2" d="m111.13,261.68c2.52,16.6-7.03,31.55-30.02,26.36-16.15-3.65-30.02-11.8-30.02-26.36s13.44-26.36,30.02-26.36,27.83,11.96,30.02,26.36Z"/>
  <path class="cls-3" d="m333.63,124.27c2.52,16.6-7.03,31.55-30.02,26.36-16.15-3.65-30.02-11.8-30.02-26.36s13.44-26.36,30.02-26.36,27.83,11.96,30.02,26.36Z"/>
  <path class="cls-1" d="m151.21,125.62l-11.45,15.3c-5.01,6.69-6.03,15.55-2.67,23.21l6.88,15.69c3.43,7.82,2.28,16.89-2.98,23.61h0c-7.38,9.42-6.37,22.92,2.32,31.14,15.65,14.81,19.83-22.87,35.69-24.69,15.97-1.83,7.32,44.5,30.54,28.93,6.05-4.05,12.14-8.01,19.38-7.25l14.63,1.54c13.23,1.39,24.92-8.62,25.58-21.91l1.62-32.4c.57-11.4-7.25-21.53-18.43-23.86l-23.63-4.93c-4.68-.98-8.94-3.37-12.2-6.86l-17.25-18.45c-3.94-4.22-9.32-6.81-15.07-7.28l-12.53-1.01c-7.94-.64-15.66,2.84-20.44,9.22Z"/>
  <path class="cls-1" d="m177.38,246.06c3.3-2.66,7.92-2.95,11.54-.73,6.14,3.76,13.43,9.95,5.91,15.05-8.76,5.93-15.61-3.96-18.48-9.27-.92-1.7-.48-3.83,1.03-5.04h0Z"/>
</svg>