<?xml version="1.0" encoding="UTF-8" standalone="no"?>
<svg
   xmlns:dc="http://purl.org/dc/elements/1.1/"
   xmlns:cc="http://creativecommons.org/ns#"
   xmlns:rdf="http://www.w3.org/1999/02/22-rdf-syntax-ns#"
   xmlns:svg="http://www.w3.org/2000/svg"
   xmlns="http://www.w3.org/2000/svg"
   viewBox="0 0 350.48001 491.51999"
   height="491.51999"
   width="350.48001"
   xml:space="preserve"
   id="svg2"
   version="1.1"><metadata
     id="metadata8"><rdf:RDF><cc:Work
         rdf:about=""><dc:format>image/svg+xml</dc:format><dc:type
           rdf:resource="http://purl.org/dc/dcmitype/StillImage" /></cc:Work></rdf:RDF></metadata><defs
     id="defs6" /><g
     transform="matrix(1.3333333,0,0,-1.3333333,0,491.52)"
     id="g10"><g
       transform="scale(0.1)"
       id="g12"><path
         id="path14"
         style="fill:#141414;fill-opacity:1;fill-rule:evenodd;stroke:none"
         d="m 1335.26,3663.69 c 177.22,-193.29 347.34,-393.79 505.54,-602.98 132.95,-175.81 258.03,-358.47 369.52,-548.69 168.71,-287.89 314.9,-607.47 381.36,-936.07 25.78,-127.49 39.68,-257.83 36.5,-387.98 -2.77,-113.11 -18.53,-225.654 -50.16,-334.376 C 2521.36,658.84 2416.93,487.598 2268.26,349.512 2012.91,112.336 1658.85,0.0195313 1314.24,0 969.664,-0.0078125 615.609,112.246 360.27,349.406 211.602,487.48 107.195,658.711 50.5586,853.457 18.9414,962.18 3.20313,1074.73 0.445313,1187.82 -2.72266,1317.98 11.1992,1448.32 36.9961,1575.81 c 66.4959,328.62 212.7149,648.21 381.4569,936.11 111.504,190.24 236.602,372.9 369.567,548.74 158.21,209.2 328.37,409.72 505.6,603.03 l 20.82,22.71 20.82,-22.71 z m 661.36,-2450.88 c -3.52,-183.57 -52.05,-370.935 -190.15,-500.122 -36.16,-33.84 -38.07,-90.743 -4.24,-126.907 33.84,-36.172 90.75,-38.066 126.91,-4.226 172.84,161.699 239.84,389.539 245.95,620.515 2.23,83.88 -3.39,168.25 -15.93,251.2 -5.28,34.87 -11.51,69.74 -20.23,103.93 -12.19,47.79 -61.47,77.04 -109.26,64.85 -47.86,-12.19 -77.17,-61.49 -64.82,-109.34 7.43,-28.83 12.67,-58.43 17.19,-87.85 10.77,-70.02 15.93,-141.21 14.58,-212.05" /></g></g></svg>